<svg width="44" height="44" viewBox="0 0 44 44" fill="none" xmlns="http://www.w3.org/2000/svg">
<path d="M22.0001 12.5859C20.1382 12.5859 18.318 13.1381 16.7699 14.1725C15.2217 15.207 14.0151 16.6772 13.3026 18.3975C12.59 20.1177 12.4036 22.0105 12.7668 23.8367C13.1301 25.6629 14.0267 27.3403 15.3433 28.6569C16.6599 29.9735 18.3373 30.8701 20.1635 31.2334C21.9897 31.5966 23.8825 31.4102 25.6028 30.6977C27.323 29.9851 28.7933 28.7785 29.8277 27.2303C30.8621 25.6822 31.4143 23.8621 31.4143 22.0001C31.4143 19.5033 30.4224 17.1088 28.6569 15.3433C26.8914 13.5778 24.4969 12.5859 22.0001 12.5859ZM22.0001 28.1124C20.7912 28.1124 19.6094 27.754 18.6043 27.0823C17.5991 26.4107 16.8157 25.4561 16.353 24.3392C15.8904 23.2223 15.7694 21.9933 16.0052 20.8076C16.2411 19.622 16.8232 18.5329 17.678 17.678C18.5329 16.8232 19.622 16.2411 20.8077 16.0052C21.9933 15.7694 23.2223 15.8904 24.3392 16.353C25.4561 16.8157 26.4107 17.5991 27.0823 18.6043C27.754 19.6094 28.1124 20.7912 28.1124 22.0001C28.1127 22.8029 27.9547 23.5978 27.6477 24.3395C27.3406 25.0812 26.8903 25.7551 26.3227 26.3227C25.7551 26.8903 25.0812 27.3406 24.3395 27.6477C23.5978 27.9547 22.8029 28.1127 22.0001 28.1124Z" fill="white"/>
<path d="M40.2233 14.4412C40.1929 12.9205 39.9046 11.416 39.3708 9.99175C38.91 8.76843 38.1887 7.65993 37.257 6.74308C36.3421 5.81065 35.2346 5.08923 34.012 4.62925C32.5871 4.0955 31.0819 3.80785 29.5606 3.77858C27.6063 3.68875 26.9811 3.66675 22.0018 3.66675C17.0225 3.66675 16.3973 3.68691 14.443 3.77675C12.9216 3.80696 11.4165 4.09522 9.99162 4.62925C8.76927 5.08981 7.66193 5.81115 6.74662 6.74308C5.81205 7.65837 5.08928 8.76724 4.62912 9.99175C4.09592 11.4161 3.80829 12.9206 3.77846 14.4412C3.68679 16.3956 3.66846 17.0207 3.66846 22.0001C3.66846 26.9794 3.68679 27.6046 3.77846 29.5589C3.80832 31.0795 4.09596 32.584 4.62912 34.0084C5.08885 35.2327 5.81097 36.3415 6.74479 37.2571C7.66107 38.1887 8.76893 38.91 9.99162 39.3709C11.4166 39.9041 12.9218 40.1918 14.443 40.2216C16.3973 40.3114 17.0225 40.3334 22 40.3334C26.9775 40.3334 27.6045 40.3133 29.5588 40.2234C31.0795 40.193 32.584 39.9047 34.0083 39.3709C35.2264 38.8999 36.3326 38.1796 37.2561 37.2562C38.1795 36.3327 38.8998 35.2265 39.3708 34.0084C39.9052 32.5843 40.1935 31.0797 40.2233 29.5589C40.3113 27.6027 40.3333 26.9794 40.3333 22.0001C40.3333 17.0207 40.3113 16.3956 40.2233 14.4412ZM36.9233 29.4086C36.9097 30.571 36.697 31.7225 36.2945 32.8131C35.9895 33.6039 35.5224 34.322 34.923 34.9213C34.3237 35.5206 33.6056 35.9878 32.8148 36.2927C31.7246 36.6969 30.5729 36.9103 29.4103 36.9234C27.4761 37.0114 26.8968 37.0297 22 37.0297C17.1031 37.0297 16.5256 37.0114 14.5933 36.9234C13.4307 36.9101 12.279 36.6968 11.1888 36.2927C10.3926 35.9984 9.67232 35.5299 9.08046 34.9214C8.4709 34.3305 8.0022 33.6099 7.70912 32.8131C7.30492 31.7229 7.09158 30.5712 7.07846 29.4086C6.99046 27.4762 6.97212 26.8969 6.97212 22.0019C6.97212 17.1069 6.99046 16.5257 7.07846 14.5916C7.0931 13.4291 7.3064 12.2777 7.70912 11.1871C8.00344 10.3909 8.47197 9.67057 9.08046 9.07875C9.67128 8.46905 10.3919 8.00032 11.1888 7.70741C12.279 7.30328 13.4307 7.08994 14.5933 7.07675C16.5256 6.98508 17.1068 6.96675 22 6.96675C26.8931 6.96675 27.4761 6.98691 29.4103 7.07491C30.5728 7.0896 31.7242 7.30289 32.8148 7.70558C33.6056 8.01042 34.3239 8.47755 34.9232 9.07687C35.5225 9.67619 35.9896 10.3944 36.2945 11.1852C36.6986 12.2755 36.9119 13.4271 36.9251 14.5897C37.0131 16.5239 37.0315 17.1014 37.0315 21.9982C37.0315 26.8951 37.0131 27.4726 36.9251 29.4067L36.9233 29.4086Z" fill="white"/>
</svg>
