<svg width="44" height="44" viewBox="0 0 44 44" fill="none" xmlns="http://www.w3.org/2000/svg">
<path d="M22.5859 12.5859C20.6081 12.5859 18.6747 13.1724 17.0302 14.2712C15.3857 15.3701 14.104 16.9318 13.3471 18.7591C12.5903 20.5864 12.3922 22.597 12.7781 24.5368C13.1639 26.4766 14.1163 28.2585 15.5149 29.657C16.9134 31.0555 18.6952 32.0079 20.635 32.3938C22.5748 32.7796 24.5855 32.5816 26.4128 31.8247C28.24 31.0679 29.8018 29.7861 30.9006 28.1416C31.9994 26.4971 32.5859 24.5637 32.5859 22.5859C32.5859 19.9338 31.5324 17.3902 29.657 15.5149C27.7816 13.6395 25.2381 12.5859 22.5859 12.5859ZM22.5859 29.0786C21.3018 29.0786 20.0465 28.6978 18.9788 27.9844C17.9111 27.271 17.0789 26.257 16.5875 25.0706C16.0961 23.8842 15.9675 22.5787 16.218 21.3193C16.4685 20.0598 17.0869 18.9029 17.9949 17.9949C18.9029 17.0869 20.0598 16.4685 21.3193 16.218C22.5787 15.9675 23.8842 16.096 25.0706 16.5875C26.257 17.0789 27.271 17.9111 27.9844 18.9788C28.6978 20.0465 29.0786 21.3018 29.0786 22.5859C29.0789 23.4386 28.9111 24.283 28.5849 25.0709C28.2587 25.8587 27.7805 26.5746 27.1775 27.1775C26.5746 27.7805 25.8587 28.2587 25.0709 28.5849C24.283 28.9111 23.4386 29.0789 22.5859 29.0786Z" fill="white"/>
<path d="M41.5545 14.8336C41.5229 13.2575 41.2242 11.6982 40.6709 10.2221C40.1934 8.95421 39.4458 7.80534 38.4801 6.85511C37.5319 5.88872 36.3841 5.14103 35.1169 4.6643C33.6402 4.11111 32.0802 3.81299 30.5035 3.78265C28.478 3.68955 27.8301 3.66675 22.6694 3.66675C17.5087 3.66675 16.8608 3.68765 14.8353 3.78075C13.2586 3.81206 11.6986 4.11082 10.2219 4.6643C8.95502 5.14163 7.80735 5.88924 6.85872 6.85511C5.89011 7.80372 5.14102 8.95297 4.66411 10.2221C4.11149 11.6983 3.81338 13.2576 3.78246 14.8336C3.68746 16.8591 3.66846 17.507 3.66846 22.6677C3.66846 27.8284 3.68746 28.4763 3.78246 30.5018C3.81341 32.0778 4.11153 33.6371 4.66411 35.1133C5.14058 36.3822 5.88899 37.5314 6.85682 38.4803C7.80646 39.4458 8.95467 40.1934 10.2219 40.6711C11.6988 41.2238 13.2587 41.5219 14.8353 41.5527C16.8608 41.6459 17.5087 41.6687 22.6675 41.6687C27.8263 41.6687 28.4761 41.6478 30.5016 41.5546C32.0777 41.5231 33.637 41.2244 35.1131 40.6711C36.3756 40.183 37.5221 39.4364 38.4792 38.4794C39.4362 37.5223 40.1828 36.3758 40.6709 35.1133C41.2248 33.6374 41.5236 32.0779 41.5545 30.5018C41.6457 28.4744 41.6685 27.8284 41.6685 22.6677C41.6685 17.507 41.6457 16.8591 41.5545 14.8336ZM38.1343 30.346C38.1202 31.5507 37.8998 32.7442 37.4826 33.8745C37.1665 34.694 36.6823 35.4384 36.0612 36.0595C35.4401 36.6806 34.6958 37.1648 33.8762 37.4808C32.7463 37.8997 31.5527 38.1208 30.3477 38.1345C28.3431 38.2257 27.7427 38.2447 22.6675 38.2447C17.5924 38.2447 16.9938 38.2257 14.9911 38.1345C13.7862 38.1207 12.5926 37.8996 11.4626 37.4808C10.6375 37.1758 9.89095 36.6902 9.27754 36.0596C8.64578 35.4471 8.16002 34.7003 7.85627 33.8745C7.43735 32.7446 7.21623 31.551 7.20263 30.346C7.11143 28.3433 7.09243 27.7429 7.09243 22.6696C7.09243 17.5963 7.11143 16.994 7.20263 14.9894C7.21781 13.7846 7.43887 12.5912 7.85627 11.4609C8.1613 10.6358 8.64689 9.8892 9.27754 9.27583C9.88988 8.64392 10.6367 8.15813 11.4626 7.85456C12.5926 7.43571 13.7862 7.2146 14.9911 7.20092C16.9938 7.10592 17.5962 7.08692 22.6675 7.08692C27.7389 7.08692 28.3431 7.10782 30.3477 7.19902C31.5525 7.21424 32.7458 7.4353 33.8762 7.85266C34.6958 8.1686 35.4402 8.65274 36.0613 9.27388C36.6825 9.89502 37.1666 10.6394 37.4826 11.459C37.9014 12.5889 38.1225 13.7826 38.1362 14.9875C38.2274 16.9921 38.2464 17.5906 38.2464 22.6658C38.2464 27.741 38.2274 28.3395 38.1362 30.3441L38.1343 30.346Z" fill="white"/>
</svg>
