<svg width="44" height="44" viewBox="0 0 44 44" fill="none" xmlns="http://www.w3.org/2000/svg">
<g clip-path="url(#clip0_606_305)">
<path fill-rule="evenodd" clip-rule="evenodd" d="M37.1873 6.13418C37.6668 5.93236 38.1917 5.86275 38.7072 5.93261C39.2228 6.00246 39.7102 6.20921 40.1187 6.53136C40.5272 6.8535 40.8419 7.27925 41.0301 7.76429C41.2182 8.24934 41.2729 8.77594 41.1885 9.2893L36.7876 35.9836C36.3607 38.5585 33.5354 40.0352 31.174 38.7526C29.1986 37.6795 26.2647 36.0263 23.6257 34.3013C22.3063 33.4378 18.2644 30.6727 18.7611 28.7051C19.188 27.0228 25.9795 20.7009 29.8603 16.9423C31.3835 15.4656 30.6889 14.6138 28.8901 15.9721C24.4213 19.3445 17.2515 24.4731 14.8803 25.9167C12.7885 27.1896 11.698 27.407 10.394 27.1896C8.01509 26.7938 5.80884 26.1806 4.00814 25.4336C1.57485 24.4245 1.69322 21.0793 4.0062 20.1052L37.1873 6.13418Z" fill="white"/>
</g>
<defs>
<clipPath id="clip0_606_305">
<rect width="44" height="44" fill="white"/>
</clipPath>
</defs>
</svg>
