<svg width="44" height="44" viewBox="0 0 44 44" fill="none" xmlns="http://www.w3.org/2000/svg">
<g clip-path="url(#clip0_596_254)">
<path fill-rule="evenodd" clip-rule="evenodd" d="M36.258 8.1216C36.7111 7.93092 37.2069 7.86515 37.694 7.93115C38.1811 7.99715 38.6416 8.19249 39.0276 8.49686C39.4136 8.80122 39.7109 9.20348 39.8887 9.66175C40.0664 10.12 40.1181 10.6176 40.0383 11.1026L35.8803 36.3238C35.477 38.7566 32.8077 40.1518 30.5765 38.9399C28.7102 37.9261 25.9382 36.3641 23.4448 34.7343C22.1982 33.9184 18.3793 31.3059 18.8487 29.4469C19.252 27.8574 25.6687 21.8844 29.3353 18.3333C30.7745 16.9381 30.1182 16.1333 28.4187 17.4166C24.1965 20.6029 17.4223 25.4484 15.182 26.8124C13.2057 28.0151 12.1753 28.2204 10.9433 28.0151C8.69568 27.6411 6.61118 27.0618 4.90985 26.3559C2.61085 25.4026 2.72268 22.2419 4.90801 21.3216L36.258 8.1216Z" fill="white"/>
</g>
<defs>
<clipPath id="clip0_596_254">
<rect width="44" height="44" fill="white"/>
</clipPath>
</defs>
</svg>
